<?xml version="1.0" standalone="no"?>
<!DOCTYPE svg PUBLIC "-//W3C//DTD SVG 1.1//EN" "http://www.w3.org/Graphics/SVG/1.1/DTD/svg11.dtd">
<!--Generator: Xara Designer (www.xara.com), SVG filter version: 4.0.0.1-->
<svg stroke-width="0.501" stroke-linejoin="bevel" fill-rule="evenodd" xmlns:xlink="http://www.w3.org/1999/xlink" xmlns="http://www.w3.org/2000/svg" version="1.1" overflow="visible" width="54.975pt" height="43.35pt" viewBox="0 0 54.975 43.35">
 <defs>
  <marker id="DefaultArrow2" markerUnits="strokeWidth" viewBox="0 0 1 1" markerWidth="1" markerHeight="1" overflow="visible" orient="auto">
   <!-- REF_ARROW_STRAIGHT (-2) -->
   <g transform="scale(0.0092592592)">
    <!-- 1/108 -->
    <path d="M -9 54 L -9 -54 L 117 0 z"/>
   </g>
  </marker>
  <marker id="DefaultArrow3" markerUnits="strokeWidth" viewBox="0 0 1 1" markerWidth="1" markerHeight="1" overflow="visible" orient="auto">
   <!-- REF_ARROW_ANGLED -->
   <g transform="scale(0.0092592592)">
    <path d="M -27 54 L -9 0 L -27 -54 L 135 0 z"/>
   </g>
  </marker>
  <marker id="DefaultArrow4" markerUnits="strokeWidth" viewBox="0 0 1 1" markerWidth="1" markerHeight="1" overflow="visible" orient="auto">
   <!-- REF_ARROW_ROUNDED -->
   <g transform="scale(0.0092592592)">
    <path d="M -9,0 L -9,-45 C -9,-51.708 2.808,-56.580 9,-54 L 117,-9 C 120.916,-7.369 126.000,-4.242 126,0 C 126,4.242 120.916,7.369 117,9 L 9,54 C 2.808,56.580 -9,51.708 -9,45 z"/>
   </g>
  </marker>
  <marker id="DefaultArrow5" markerUnits="strokeWidth" viewBox="0 0 1 1" markerWidth="1" markerHeight="1" overflow="visible" orient="auto">
   <!-- REF_ARROW_SPOT -->
   <g transform="scale(0.0092592592)">
    <path d="M -54, 0 C -54,29.807 -29.807,54 0,54 C 29.807,54 54,29.807 54,0 C 54,-29.807 29.807,-54 0,-54 C -29.807,-54 -54,-29.807 -54,0 z"/>
   </g>
  </marker>
  <marker id="DefaultArrow6" markerUnits="strokeWidth" viewBox="0 0 1 1" markerWidth="1" markerHeight="1" overflow="visible" orient="auto">
   <!-- REF_ARROW_DIAMOND -->
   <g transform="scale(0.0092592592)">
    <path d="M -63,0 L 0,63 L 63,0 L 0,-63 z"/>
   </g>
  </marker>
  <marker id="DefaultArrow7" markerUnits="strokeWidth" viewBox="0 0 1 1" markerWidth="1" markerHeight="1" overflow="visible" orient="auto">
   <!-- REF_ARROW_FEATHER -->
   <g transform="scale(0.0092592592)">
    <path d="M 18,-54 L 108,-54 L 63,0 L 108,54 L 18, 54 L -36,0 z"/>
   </g>
  </marker>
  <marker id="DefaultArrow8" markerUnits="strokeWidth" viewBox="0 0 1 1" markerWidth="1" markerHeight="1" overflow="visible" orient="auto">
   <!-- REF_ARROW_FEATHER2 -->
   <g transform="scale(0.0092592592)">
    <path d="M -36,0 L 18,-54 L 54,-54 L 18,-18 L 27,-18 L 63,-54 L 99,-54 L 63,-18 L 72,-18 L 108,-54 L 144,-54 L 90,0 L 144,54 L 108,54 L 72,18 L 63,18 L 99,54 L 63,54 L 27,18 L 18,18 L 54,54 L 18,54 z"/>
   </g>
  </marker>
  <marker id="DefaultArrow9" markerUnits="strokeWidth" viewBox="0 0 1 1" markerWidth="1" markerHeight="1" overflow="visible" orient="auto">
   <!-- REF_ARROW_HOLLOWDIAMOND -->
   <g transform="scale(0.0092592592)">
    <path d="M 0,45 L -45,0 L 0, -45 L 45, 0 z M 0, 63 L-63, 0 L 0, -63 L 63, 0 z"/>
   </g>
  </marker>
  <filter id="StainedFilter">
   <feBlend mode="multiply" in2="BackgroundImage" in="SourceGraphic" result="blend"/>
   <feComposite in="blend" in2="SourceAlpha" operator="in" result="comp"/>
  </filter>
  <filter id="BleachFilter">
   <feBlend mode="screen" in2="BackgroundImage" in="SourceGraphic" result="blend"/>
   <feComposite in="blend" in2="SourceAlpha" operator="in" result="comp"/>
  </filter>
  <filter id="InvertTransparencyBitmapFilter">
   <feComponentTransfer>
    <feFuncR type="gamma" amplitude="1.055" exponent=".416666666" offset="-0.055"/>
    <feFuncG type="gamma" amplitude="1.055" exponent=".416666666" offset="-0.055"/>
    <feFuncB type="gamma" amplitude="1.055" exponent=".416666666" offset="-0.055"/>
   </feComponentTransfer>
   <feComponentTransfer>
    <feFuncR type="linear" slope="-1" intercept="1"/>
    <feFuncG type="linear" slope="-1" intercept="1"/>
    <feFuncB type="linear" slope="-1" intercept="1"/>
    <feFuncA type="linear" slope="1" intercept="0"/>
   </feComponentTransfer>
   <feComponentTransfer>
    <feFuncR type="gamma" amplitude="1" exponent="2.4" offset="0"/>
    <feFuncG type="gamma" amplitude="1" exponent="2.4" offset="0"/>
    <feFuncB type="gamma" amplitude="1" exponent="2.4" offset="0"/>
   </feComponentTransfer>
  </filter>
 </defs>
 <g id="Document" fill="none" stroke="black" font-family="Times New Roman" font-size="16" transform="scale(1 -1)">
  <g id="Spread" transform="translate(0 -43.35)">
   <g id="Layer 1">
    <g id="Group" stroke-linecap="round" stroke="none">
     <path d="M 0.852,13.409 C -1.489,22.835 4.26,32.386 13.686,34.727 C 16.985,35.546 20.3,35.375 23.316,34.401 C 25.659,37.506 29.041,39.858 33.108,40.868 C 42.534,43.209 52.085,37.46 54.426,28.034 C 56.768,18.609 51.018,9.058 41.593,6.716 C 38.293,5.896 34.978,6.068 31.962,7.042 C 29.618,3.937 26.236,1.585 22.17,0.576 C 12.744,-1.766 3.193,3.984 0.852,13.409 Z" fill="#000c20" stroke-linejoin="miter" stroke-width="0.243" marker-start="none" marker-end="none" stroke-miterlimit="79.8403193612775"/>
     <g id="Group_1">
      <g id="Group_2">
       <path d="M 32.808,42.818 C 42.234,45.159 51.785,39.41 54.126,29.984 C 56.468,20.559 50.718,11.008 41.293,8.666 C 31.867,6.325 22.316,12.075 19.975,21.5 C 17.633,30.926 23.383,40.477 32.808,42.818 Z" stroke-linejoin="miter" fill="#ffca08" stroke-width="0.243" marker-start="none" marker-end="none" stroke-miterlimit="79.8403193612775"/>
       <path d="M 33.729,39.111 C 41.109,40.944 48.587,36.443 50.42,29.064 C 52.253,21.684 47.751,14.206 40.372,12.373 C 32.992,10.54 25.514,15.041 23.681,22.421 C 21.848,29.801 26.35,37.278 33.729,39.111 Z" stroke-linejoin="miter" fill="#ffca08" stroke-width="0.19" marker-start="none" marker-end="none" stroke-miterlimit="79.8403193612775"/>
       <path d="M 23.744,22.417 C 21.918,29.77 26.404,37.222 33.757,39.049 C 38.816,40.305 43.921,38.574 47.21,34.978 C 43.93,37.976 39.258,39.332 34.625,38.18 C 27.271,36.354 22.786,28.903 24.613,21.549 C 25.183,19.254 26.301,17.239 27.792,15.607 C 25.866,17.368 24.42,19.696 23.744,22.417 Z" stroke-linejoin="miter" fill="#ef9800" stroke-width="0.189" marker-start="none" marker-end="none" stroke-miterlimit="79.8403193612775"/>
       <path d="M 39.986,12.188 L 33.809,18.513 L 38.347,21.297 L 33.699,25.786 L 33.809,29.973 L 38.028,35.179 L 40.512,32.758 L 41.53,32.504 L 50.616,23.468 C 49.679,18.147 45.708,13.609 40.13,12.223 C 40.083,12.211 40.034,12.2 39.986,12.188 Z" fill="#ef9800" stroke-width="0.212" stroke-linejoin="miter" marker-start="none" marker-end="none" stroke-miterlimit="79.8403193612775"/>
       <g id="Group_3" fill-rule="nonzero" stroke-linejoin="round" stroke-width="0.517" fill="#fef135" stroke-miterlimit="79.8403193612775">
        <g id="Group_4">
         <path d="M 35.633,16.628 L 37.645,16.628 L 37.603,18.367 C 38.963,18.608 39.999,19.098 40.711,19.831 C 41.422,20.566 41.779,21.518 41.784,22.693 C 41.783,23.265 41.687,23.796 41.495,24.286 C 41.303,24.776 41.02,25.204 40.646,25.571 C 40.436,25.788 40.207,25.99 39.957,26.175 C 39.707,26.36 39.41,26.548 39.064,26.739 C 38.721,26.929 38.303,27.139 37.81,27.371 L 36.566,27.95 C 36.103,28.163 35.765,28.384 35.553,28.615 C 35.342,28.846 35.237,29.114 35.241,29.42 C 35.245,29.847 35.449,30.177 35.855,30.41 C 36.259,30.645 36.843,30.763 37.603,30.766 C 38.084,30.767 38.533,30.723 38.955,30.635 C 39.376,30.545 39.788,30.406 40.192,30.213 C 40.595,30.022 41.008,29.77 41.433,29.461 L 41.433,32.608 C 41.078,32.786 40.727,32.935 40.38,33.055 C 40.034,33.174 39.669,33.269 39.283,33.341 C 38.898,33.412 38.469,33.464 37.996,33.498 L 38.038,35.174 L 36.028,35.174 L 36.07,33.435 C 34.669,33.214 33.609,32.741 32.888,32.018 C 32.17,31.294 31.808,30.345 31.805,29.172 C 31.805,28.672 31.882,28.206 32.036,27.777 C 32.189,27.347 32.415,26.969 32.716,26.646 C 32.909,26.43 33.127,26.228 33.368,26.041 C 33.609,25.856 33.912,25.658 34.278,25.45 C 34.643,25.244 35.11,25 35.675,24.722 C 36.201,24.461 36.627,24.235 36.956,24.047 C 37.285,23.857 37.536,23.684 37.711,23.529 C 37.887,23.373 38.007,23.214 38.071,23.054 C 38.135,22.893 38.166,22.711 38.163,22.507 C 38.157,22.059 37.96,21.712 37.57,21.469 C 37.179,21.225 36.623,21.102 35.904,21.099 C 35.405,21.097 34.936,21.145 34.496,21.242 C 34.055,21.339 33.609,21.497 33.157,21.715 C 32.705,21.935 32.212,22.226 31.681,22.59 L 31.681,19.216 C 32.098,19.016 32.51,18.852 32.919,18.72 C 33.326,18.588 33.755,18.485 34.203,18.408 C 34.65,18.331 35.142,18.276 35.675,18.242 L 35.633,16.628 Z" marker-start="none" marker-end="none"/>
        </g>
       </g>
       <path d="M 20.747,21.691 C 18.512,30.692 24.001,39.811 33,42.046 C 42,44.281 51.12,38.793 53.355,29.793 C 55.59,20.793 50.1,11.674 41.102,9.439 C 32.101,7.204 22.983,12.693 20.747,21.691 Z M 40.372,12.373 C 47.752,14.207 52.253,21.684 50.42,29.063 C 48.587,36.443 41.109,40.945 33.73,39.111 C 26.351,37.279 21.849,29.8 23.682,22.421 C 25.515,15.042 32.992,10.541 40.372,12.373 Z" stroke-width="0.232" fill="#fef135" stroke-linejoin="miter" marker-start="none" marker-end="none" stroke-miterlimit="79.8403193612775"/>
      </g>
      <g id="Group_5">
       <path d="M 13.386,36.677 C 22.812,39.019 32.363,33.269 34.704,23.844 C 37.045,14.418 31.296,4.867 21.87,2.526 C 12.444,0.184 2.893,5.934 0.552,15.359 C -1.789,24.785 3.96,34.336 13.386,36.677 Z" stroke-linejoin="miter" fill="#ffca08" stroke-width="0.243" marker-start="none" marker-end="none" stroke-miterlimit="79.8403193612775"/>
       <path d="M 14.307,32.971 C 21.686,34.804 29.164,30.302 30.997,22.923 C 32.83,15.543 28.329,8.065 20.949,6.232 C 13.57,4.399 6.092,8.901 4.259,16.28 C 2.426,23.66 6.927,31.138 14.307,32.971 Z" stroke-linejoin="miter" fill="#ffca08" stroke-width="0.19" marker-start="none" marker-end="none" stroke-miterlimit="79.8403193612775"/>
       <path d="M 4.322,16.277 C 2.496,23.63 6.981,31.082 14.335,32.908 C 19.393,34.165 24.498,32.433 27.786,28.838 C 24.508,31.836 19.835,33.19 15.203,32.04 C 7.849,30.214 3.363,22.763 5.191,15.408 C 5.761,13.114 6.878,11.097 8.369,9.466 C 6.444,11.227 4.997,13.555 4.322,16.277 Z" stroke-linejoin="miter" fill="#ef9800" stroke-width="0.189" marker-start="none" marker-end="none" stroke-miterlimit="79.8403193612775"/>
       <path d="M 20.564,6.048 L 14.387,12.371 L 18.924,15.157 L 14.276,19.646 L 14.387,23.833 L 18.607,29.037 L 21.088,26.617 L 22.108,26.363 L 31.193,17.326 C 30.256,12.005 26.285,7.469 20.708,6.082 C 20.66,6.07 20.612,6.059 20.564,6.048 Z" fill="#ef9800" stroke-width="0.212" stroke-linejoin="miter" marker-start="none" marker-end="none" stroke-miterlimit="79.8403193612775"/>
       <g id="Group_6" fill-rule="nonzero" stroke-linejoin="round" stroke-width="0.517" fill="#fef135" stroke-miterlimit="79.8403193612775">
        <g id="Group_7">
         <path d="M 16.211,10.488 L 18.222,10.488 L 18.18,12.226 C 19.542,12.469 20.577,12.957 21.288,13.69 C 21.999,14.424 22.357,15.378 22.362,16.552 C 22.361,17.124 22.264,17.657 22.072,18.146 C 21.881,18.636 21.598,19.064 21.223,19.429 C 21.014,19.648 20.784,19.848 20.535,20.035 C 20.284,20.22 19.987,20.408 19.642,20.598 C 19.299,20.789 18.881,20.999 18.387,21.231 L 17.144,21.81 C 16.681,22.022 16.343,22.244 16.131,22.475 C 15.92,22.704 15.815,22.974 15.818,23.28 C 15.822,23.706 16.026,24.037 16.432,24.271 C 16.837,24.504 17.421,24.621 18.18,24.624 C 18.661,24.625 19.111,24.582 19.532,24.494 C 19.953,24.406 20.366,24.264 20.769,24.072 C 21.172,23.881 21.586,23.63 22.01,23.321 L 22.01,26.467 C 21.655,26.645 21.304,26.795 20.958,26.914 C 20.612,27.033 20.246,27.129 19.861,27.2 C 19.475,27.271 19.045,27.323 18.574,27.357 L 18.616,29.033 L 16.605,29.033 L 16.647,27.295 C 15.247,27.073 14.186,26.6 13.467,25.877 C 12.747,25.153 12.385,24.204 12.382,23.031 C 12.383,22.531 12.46,22.067 12.613,21.636 C 12.766,21.206 12.992,20.829 13.293,20.506 C 13.486,20.289 13.705,20.088 13.946,19.901 C 14.186,19.714 14.49,19.517 14.855,19.31 C 15.221,19.103 15.687,18.859 16.253,18.581 C 16.779,18.321 17.206,18.095 17.534,17.906 C 17.862,17.716 18.115,17.544 18.289,17.388 C 18.464,17.232 18.585,17.073 18.648,16.912 C 18.713,16.752 18.743,16.57 18.74,16.365 C 18.736,15.918 18.537,15.572 18.147,15.328 C 17.757,15.085 17.2,14.962 16.482,14.959 C 15.982,14.956 15.513,15.004 15.073,15.102 C 14.633,15.197 14.186,15.355 13.735,15.575 C 13.283,15.794 12.791,16.085 12.258,16.449 L 12.258,13.074 C 12.675,12.876 13.088,12.71 13.496,12.578 C 13.904,12.447 14.333,12.343 14.78,12.267 C 15.227,12.19 15.719,12.134 16.253,12.102 L 16.211,10.488 Z" marker-start="none" marker-end="none"/>
        </g>
       </g>
       <path d="M 1.325,15.551 C -0.911,24.55 4.578,33.67 13.578,35.905 C 22.579,38.14 31.697,32.652 33.932,23.652 C 36.167,14.652 30.679,5.533 21.68,3.298 C 12.679,1.063 3.56,6.551 1.325,15.551 Z M 20.95,6.233 C 28.329,8.066 32.83,15.544 30.998,22.923 C 29.164,30.302 21.687,34.803 14.308,32.971 C 6.927,31.137 2.426,23.66 4.26,16.28 C 6.093,8.901 13.571,4.399 20.95,6.233 Z" stroke-width="0.232" fill="#fef135" stroke-linejoin="miter" marker-start="none" marker-end="none" stroke-miterlimit="79.8403193612775"/>
      </g>
     </g>
    </g>
   </g>
  </g>
 </g>
</svg>
