<?xml version="1.0" standalone="no"?>
<!DOCTYPE svg PUBLIC "-//W3C//DTD SVG 1.1//EN" "http://www.w3.org/Graphics/SVG/1.1/DTD/svg11.dtd">
<!--Generator: Xara Designer (www.xara.com), SVG filter version: 4.0.0.1-->
<svg stroke-width="0.501" stroke-linejoin="bevel" fill-rule="evenodd" xmlns:xlink="http://www.w3.org/1999/xlink" xmlns="http://www.w3.org/2000/svg" version="1.1" overflow="visible" width="83.85pt" height="83.925pt" viewBox="0 0 83.85 83.925">
 <defs>
  <marker id="DefaultArrow2" markerUnits="strokeWidth" viewBox="0 0 1 1" markerWidth="1" markerHeight="1" overflow="visible" orient="auto">
   <!-- REF_ARROW_STRAIGHT (-2) -->
   <g transform="scale(0.0092592592)">
    <!-- 1/108 -->
    <path d="M -9 54 L -9 -54 L 117 0 z"/>
   </g>
  </marker>
  <marker id="DefaultArrow3" markerUnits="strokeWidth" viewBox="0 0 1 1" markerWidth="1" markerHeight="1" overflow="visible" orient="auto">
   <!-- REF_ARROW_ANGLED -->
   <g transform="scale(0.0092592592)">
    <path d="M -27 54 L -9 0 L -27 -54 L 135 0 z"/>
   </g>
  </marker>
  <marker id="DefaultArrow4" markerUnits="strokeWidth" viewBox="0 0 1 1" markerWidth="1" markerHeight="1" overflow="visible" orient="auto">
   <!-- REF_ARROW_ROUNDED -->
   <g transform="scale(0.0092592592)">
    <path d="M -9,0 L -9,-45 C -9,-51.708 2.808,-56.580 9,-54 L 117,-9 C 120.916,-7.369 126.000,-4.242 126,0 C 126,4.242 120.916,7.369 117,9 L 9,54 C 2.808,56.580 -9,51.708 -9,45 z"/>
   </g>
  </marker>
  <marker id="DefaultArrow5" markerUnits="strokeWidth" viewBox="0 0 1 1" markerWidth="1" markerHeight="1" overflow="visible" orient="auto">
   <!-- REF_ARROW_SPOT -->
   <g transform="scale(0.0092592592)">
    <path d="M -54, 0 C -54,29.807 -29.807,54 0,54 C 29.807,54 54,29.807 54,0 C 54,-29.807 29.807,-54 0,-54 C -29.807,-54 -54,-29.807 -54,0 z"/>
   </g>
  </marker>
  <marker id="DefaultArrow6" markerUnits="strokeWidth" viewBox="0 0 1 1" markerWidth="1" markerHeight="1" overflow="visible" orient="auto">
   <!-- REF_ARROW_DIAMOND -->
   <g transform="scale(0.0092592592)">
    <path d="M -63,0 L 0,63 L 63,0 L 0,-63 z"/>
   </g>
  </marker>
  <marker id="DefaultArrow7" markerUnits="strokeWidth" viewBox="0 0 1 1" markerWidth="1" markerHeight="1" overflow="visible" orient="auto">
   <!-- REF_ARROW_FEATHER -->
   <g transform="scale(0.0092592592)">
    <path d="M 18,-54 L 108,-54 L 63,0 L 108,54 L 18, 54 L -36,0 z"/>
   </g>
  </marker>
  <marker id="DefaultArrow8" markerUnits="strokeWidth" viewBox="0 0 1 1" markerWidth="1" markerHeight="1" overflow="visible" orient="auto">
   <!-- REF_ARROW_FEATHER2 -->
   <g transform="scale(0.0092592592)">
    <path d="M -36,0 L 18,-54 L 54,-54 L 18,-18 L 27,-18 L 63,-54 L 99,-54 L 63,-18 L 72,-18 L 108,-54 L 144,-54 L 90,0 L 144,54 L 108,54 L 72,18 L 63,18 L 99,54 L 63,54 L 27,18 L 18,18 L 54,54 L 18,54 z"/>
   </g>
  </marker>
  <marker id="DefaultArrow9" markerUnits="strokeWidth" viewBox="0 0 1 1" markerWidth="1" markerHeight="1" overflow="visible" orient="auto">
   <!-- REF_ARROW_HOLLOWDIAMOND -->
   <g transform="scale(0.0092592592)">
    <path d="M 0,45 L -45,0 L 0, -45 L 45, 0 z M 0, 63 L-63, 0 L 0, -63 L 63, 0 z"/>
   </g>
  </marker>
  <filter id="StainedFilter">
   <feBlend mode="multiply" in2="BackgroundImage" in="SourceGraphic" result="blend"/>
   <feComposite in="blend" in2="SourceAlpha" operator="in" result="comp"/>
  </filter>
  <filter id="BleachFilter">
   <feBlend mode="screen" in2="BackgroundImage" in="SourceGraphic" result="blend"/>
   <feComposite in="blend" in2="SourceAlpha" operator="in" result="comp"/>
  </filter>
  <filter id="InvertTransparencyBitmapFilter">
   <feComponentTransfer>
    <feFuncR type="gamma" amplitude="1.055" exponent=".416666666" offset="-0.055"/>
    <feFuncG type="gamma" amplitude="1.055" exponent=".416666666" offset="-0.055"/>
    <feFuncB type="gamma" amplitude="1.055" exponent=".416666666" offset="-0.055"/>
   </feComponentTransfer>
   <feComponentTransfer>
    <feFuncR type="linear" slope="-1" intercept="1"/>
    <feFuncG type="linear" slope="-1" intercept="1"/>
    <feFuncB type="linear" slope="-1" intercept="1"/>
    <feFuncA type="linear" slope="1" intercept="0"/>
   </feComponentTransfer>
   <feComponentTransfer>
    <feFuncR type="gamma" amplitude="1" exponent="2.4" offset="0"/>
    <feFuncG type="gamma" amplitude="1" exponent="2.4" offset="0"/>
    <feFuncB type="gamma" amplitude="1" exponent="2.4" offset="0"/>
   </feComponentTransfer>
  </filter>
 </defs>
 <g id="Document" fill="none" stroke="black" font-family="Times New Roman" font-size="16" transform="scale(1 -1)">
  <g id="Spread" transform="translate(0 -83.925)">
   <g id="Layer 1">
    <g id="Group" stroke="none">
     <path d="M 24.199,79.953 C 45.161,89.747 70.124,80.683 79.918,59.722 C 89.712,38.76 80.648,13.797 59.687,4.003 C 38.725,-5.791 13.762,3.273 3.968,24.234 C -5.826,45.196 3.238,70.159 24.199,79.953 Z" fill="#00314f" stroke-linejoin="miter" stroke-width="0.198" marker-start="none" marker-end="none" stroke-miterlimit="79.8403193612775"/>
     <path d="M 15.216,41.485 C 12.875,50.911 18.624,60.462 28.05,62.803 C 31.349,63.622 34.664,63.451 37.68,62.477 C 40.023,65.582 43.405,67.934 47.472,68.944 C 56.898,71.285 66.449,65.536 68.79,56.11 C 71.132,46.685 65.382,37.134 55.957,34.792 C 52.657,33.972 49.342,34.144 46.326,35.118 C 43.982,32.013 40.6,29.661 36.534,28.652 C 27.108,26.31 17.557,32.06 15.216,41.485 Z" fill="#000c20" stroke-linejoin="miter" stroke-linecap="round" stroke-width="0.243" marker-start="none" marker-end="none" stroke-miterlimit="79.8403193612775"/>
     <g id="Group_1" stroke-linecap="round">
      <g id="Group_2">
       <path d="M 47.172,70.894 C 56.598,73.235 66.149,67.486 68.49,58.06 C 70.832,48.635 65.082,39.084 55.657,36.742 C 46.231,34.401 36.68,40.151 34.339,49.576 C 31.997,59.002 37.747,68.553 47.172,70.894 Z" stroke-linejoin="miter" fill="#ffca08" stroke-width="0.243" marker-start="none" marker-end="none" stroke-miterlimit="79.8403193612775"/>
       <path d="M 48.093,67.187 C 55.473,69.02 62.951,64.519 64.784,57.14 C 66.617,49.76 62.115,42.282 54.736,40.449 C 47.356,38.616 39.878,43.117 38.045,50.497 C 36.212,57.877 40.714,65.354 48.093,67.187 Z" stroke-linejoin="miter" fill="#ffca08" stroke-width="0.19" marker-start="none" marker-end="none" stroke-miterlimit="79.8403193612775"/>
       <path d="M 38.108,50.493 C 36.282,57.846 40.768,65.298 48.121,67.125 C 53.18,68.381 58.285,66.65 61.574,63.054 C 58.294,66.052 53.622,67.408 48.989,66.256 C 41.635,64.43 37.15,56.979 38.977,49.625 C 39.547,47.33 40.665,45.315 42.156,43.683 C 40.23,45.444 38.784,47.772 38.108,50.493 Z" stroke-linejoin="miter" fill="#ef9800" stroke-width="0.189" marker-start="none" marker-end="none" stroke-miterlimit="79.8403193612775"/>
       <path d="M 54.35,40.264 L 48.173,46.589 L 52.711,49.373 L 48.063,53.862 L 48.173,58.049 L 52.392,63.255 L 54.876,60.834 L 55.894,60.58 L 64.98,51.544 C 64.043,46.223 60.072,41.685 54.494,40.299 C 54.447,40.287 54.398,40.276 54.35,40.264 Z" fill="#ef9800" stroke-width="0.212" stroke-linejoin="miter" marker-start="none" marker-end="none" stroke-miterlimit="79.8403193612775"/>
       <g id="Group_3" fill-rule="nonzero" stroke-linejoin="round" stroke-width="0.517" fill="#fef135" stroke-miterlimit="79.8403193612775">
        <g id="Group_4">
         <path d="M 49.997,44.704 L 52.009,44.704 L 51.967,46.443 C 53.327,46.684 54.363,47.174 55.075,47.907 C 55.786,48.642 56.143,49.594 56.148,50.769 C 56.147,51.341 56.051,51.872 55.859,52.362 C 55.667,52.852 55.384,53.28 55.01,53.647 C 54.8,53.864 54.571,54.066 54.321,54.251 C 54.071,54.436 53.774,54.624 53.428,54.815 C 53.085,55.005 52.667,55.215 52.174,55.447 L 50.93,56.026 C 50.467,56.239 50.129,56.46 49.917,56.691 C 49.706,56.922 49.601,57.19 49.605,57.496 C 49.609,57.923 49.813,58.253 50.219,58.486 C 50.623,58.721 51.207,58.839 51.967,58.842 C 52.448,58.843 52.897,58.799 53.319,58.711 C 53.74,58.621 54.152,58.482 54.556,58.289 C 54.959,58.098 55.372,57.846 55.797,57.537 L 55.797,60.684 C 55.442,60.862 55.091,61.011 54.744,61.131 C 54.398,61.25 54.033,61.345 53.647,61.417 C 53.262,61.488 52.833,61.54 52.36,61.574 L 52.402,63.25 L 50.392,63.25 L 50.434,61.511 C 49.033,61.29 47.973,60.817 47.252,60.094 C 46.534,59.37 46.172,58.421 46.169,57.248 C 46.169,56.748 46.246,56.282 46.4,55.853 C 46.553,55.423 46.779,55.045 47.08,54.722 C 47.273,54.506 47.491,54.304 47.732,54.117 C 47.973,53.932 48.276,53.734 48.642,53.526 C 49.007,53.32 49.474,53.076 50.039,52.798 C 50.565,52.537 50.991,52.311 51.32,52.123 C 51.649,51.933 51.9,51.76 52.075,51.605 C 52.251,51.449 52.371,51.29 52.435,51.13 C 52.499,50.969 52.53,50.787 52.527,50.583 C 52.521,50.135 52.324,49.788 51.934,49.545 C 51.543,49.301 50.987,49.178 50.268,49.175 C 49.769,49.173 49.3,49.221 48.86,49.318 C 48.419,49.415 47.973,49.573 47.521,49.791 C 47.069,50.011 46.576,50.302 46.045,50.666 L 46.045,47.292 C 46.462,47.092 46.874,46.928 47.283,46.796 C 47.69,46.664 48.119,46.561 48.567,46.484 C 49.014,46.407 49.506,46.352 50.039,46.318 L 49.997,44.704 Z" marker-start="none" marker-end="none"/>
        </g>
       </g>
       <path d="M 35.111,49.767 C 32.876,58.768 38.365,67.887 47.364,70.122 C 56.364,72.357 65.484,66.869 67.719,57.869 C 69.954,48.869 64.464,39.75 55.466,37.515 C 46.465,35.28 37.347,40.769 35.111,49.767 Z M 54.736,40.449 C 62.116,42.283 66.617,49.76 64.784,57.139 C 62.951,64.519 55.473,69.021 48.094,67.187 C 40.715,65.355 36.213,57.876 38.046,50.497 C 39.879,43.118 47.356,38.617 54.736,40.449 Z" stroke-width="0.232" fill="#fef135" stroke-linejoin="miter" marker-start="none" marker-end="none" stroke-miterlimit="79.8403193612775"/>
      </g>
      <g id="Group_5">
       <path d="M 27.75,64.753 C 37.176,67.095 46.727,61.345 49.068,51.92 C 51.409,42.494 45.66,32.943 36.234,30.602 C 26.808,28.26 17.257,34.01 14.916,43.435 C 12.575,52.861 18.324,62.412 27.75,64.753 Z" stroke-linejoin="miter" fill="#ffca08" stroke-width="0.243" marker-start="none" marker-end="none" stroke-miterlimit="79.8403193612775"/>
       <path d="M 28.671,61.047 C 36.05,62.88 43.528,58.378 45.361,50.999 C 47.194,43.619 42.693,36.141 35.313,34.308 C 27.934,32.475 20.456,36.977 18.623,44.356 C 16.79,51.736 21.291,59.214 28.671,61.047 Z" stroke-linejoin="miter" fill="#ffca08" stroke-width="0.19" marker-start="none" marker-end="none" stroke-miterlimit="79.8403193612775"/>
       <path d="M 18.686,44.353 C 16.86,51.706 21.345,59.158 28.699,60.984 C 33.757,62.241 38.862,60.509 42.15,56.914 C 38.872,59.912 34.199,61.266 29.567,60.116 C 22.213,58.29 17.727,50.839 19.555,43.484 C 20.125,41.19 21.242,39.173 22.733,37.542 C 20.808,39.303 19.361,41.631 18.686,44.353 Z" stroke-linejoin="miter" fill="#ef9800" stroke-width="0.189" marker-start="none" marker-end="none" stroke-miterlimit="79.8403193612775"/>
       <path d="M 34.928,34.124 L 28.751,40.447 L 33.288,43.233 L 28.64,47.722 L 28.751,51.909 L 32.971,57.113 L 35.452,54.693 L 36.472,54.439 L 45.557,45.402 C 44.62,40.081 40.649,35.545 35.072,34.158 C 35.024,34.146 34.976,34.135 34.928,34.124 Z" fill="#ef9800" stroke-width="0.212" stroke-linejoin="miter" marker-start="none" marker-end="none" stroke-miterlimit="79.8403193612775"/>
       <g id="Group_6" fill-rule="nonzero" stroke-linejoin="round" stroke-width="0.517" fill="#fef135" stroke-miterlimit="79.8403193612775">
        <g id="Group_7">
         <path d="M 30.575,38.564 L 32.586,38.564 L 32.544,40.302 C 33.906,40.545 34.941,41.033 35.652,41.766 C 36.363,42.5 36.721,43.454 36.726,44.628 C 36.725,45.2 36.628,45.733 36.436,46.222 C 36.245,46.712 35.962,47.14 35.587,47.505 C 35.378,47.724 35.148,47.924 34.899,48.111 C 34.648,48.296 34.351,48.484 34.006,48.674 C 33.663,48.865 33.245,49.075 32.751,49.307 L 31.508,49.886 C 31.045,50.098 30.707,50.32 30.495,50.551 C 30.284,50.78 30.179,51.05 30.182,51.356 C 30.186,51.782 30.39,52.113 30.796,52.347 C 31.201,52.58 31.785,52.697 32.544,52.7 C 33.025,52.701 33.475,52.658 33.896,52.57 C 34.317,52.482 34.73,52.34 35.133,52.148 C 35.536,51.957 35.95,51.706 36.374,51.397 L 36.374,54.543 C 36.019,54.721 35.668,54.871 35.322,54.99 C 34.976,55.109 34.61,55.205 34.225,55.276 C 33.839,55.347 33.409,55.399 32.938,55.433 L 32.98,57.109 L 30.969,57.109 L 31.011,55.371 C 29.611,55.149 28.55,54.676 27.831,53.953 C 27.111,53.229 26.749,52.28 26.746,51.107 C 26.747,50.607 26.824,50.143 26.977,49.712 C 27.13,49.282 27.356,48.905 27.657,48.582 C 27.85,48.365 28.069,48.164 28.31,47.977 C 28.55,47.79 28.854,47.593 29.219,47.386 C 29.585,47.179 30.051,46.935 30.617,46.657 C 31.143,46.397 31.57,46.171 31.898,45.982 C 32.226,45.792 32.479,45.62 32.653,45.464 C 32.828,45.308 32.949,45.149 33.012,44.988 C 33.077,44.828 33.107,44.646 33.104,44.441 C 33.1,43.994 32.901,43.648 32.511,43.404 C 32.121,43.161 31.564,43.038 30.846,43.035 C 30.346,43.032 29.877,43.08 29.437,43.178 C 28.997,43.273 28.55,43.431 28.099,43.651 C 27.647,43.87 27.155,44.161 26.622,44.525 L 26.622,41.15 C 27.039,40.952 27.452,40.786 27.86,40.654 C 28.268,40.523 28.697,40.419 29.144,40.343 C 29.591,40.266 30.083,40.21 30.617,40.178 L 30.575,38.564 Z" marker-start="none" marker-end="none"/>
        </g>
       </g>
       <path d="M 15.689,43.627 C 13.453,52.626 18.942,61.746 27.942,63.981 C 36.943,66.216 46.061,60.728 48.296,51.728 C 50.531,42.728 45.043,33.609 36.044,31.374 C 27.043,29.139 17.924,34.627 15.689,43.627 Z M 35.314,34.309 C 42.693,36.142 47.194,43.62 45.362,50.999 C 43.528,58.378 36.051,62.879 28.672,61.047 C 21.291,59.213 16.79,51.736 18.624,44.356 C 20.457,36.977 27.935,32.475 35.314,34.309 Z" stroke-width="0.232" fill="#fef135" stroke-linejoin="miter" marker-start="none" marker-end="none" stroke-miterlimit="79.8403193612775"/>
      </g>
     </g>
    </g>
   </g>
  </g>
 </g>
</svg>
