<?xml version="1.0" standalone="no"?>
<!DOCTYPE svg PUBLIC "-//W3C//DTD SVG 1.1//EN" "http://www.w3.org/Graphics/SVG/1.1/DTD/svg11.dtd">
<!--Generator: Xara Designer (www.xara.com), SVG filter version: 4.0.0.1-->
<svg stroke-width="0.501" stroke-linejoin="bevel" fill-rule="evenodd" xmlns:xlink="http://www.w3.org/1999/xlink" xmlns="http://www.w3.org/2000/svg" version="1.1" overflow="visible" width="168.675pt" height="30.825pt" viewBox="0 0 168.675 30.825">
 <defs>
  <marker id="DefaultArrow2" markerUnits="strokeWidth" viewBox="0 0 1 1" markerWidth="1" markerHeight="1" overflow="visible" orient="auto">
   <!-- REF_ARROW_STRAIGHT (-2) -->
   <g transform="scale(0.0092592592)">
    <!-- 1/108 -->
    <path d="M -9 54 L -9 -54 L 117 0 z"/>
   </g>
  </marker>
  <marker id="DefaultArrow3" markerUnits="strokeWidth" viewBox="0 0 1 1" markerWidth="1" markerHeight="1" overflow="visible" orient="auto">
   <!-- REF_ARROW_ANGLED -->
   <g transform="scale(0.0092592592)">
    <path d="M -27 54 L -9 0 L -27 -54 L 135 0 z"/>
   </g>
  </marker>
  <marker id="DefaultArrow4" markerUnits="strokeWidth" viewBox="0 0 1 1" markerWidth="1" markerHeight="1" overflow="visible" orient="auto">
   <!-- REF_ARROW_ROUNDED -->
   <g transform="scale(0.0092592592)">
    <path d="M -9,0 L -9,-45 C -9,-51.708 2.808,-56.580 9,-54 L 117,-9 C 120.916,-7.369 126.000,-4.242 126,0 C 126,4.242 120.916,7.369 117,9 L 9,54 C 2.808,56.580 -9,51.708 -9,45 z"/>
   </g>
  </marker>
  <marker id="DefaultArrow5" markerUnits="strokeWidth" viewBox="0 0 1 1" markerWidth="1" markerHeight="1" overflow="visible" orient="auto">
   <!-- REF_ARROW_SPOT -->
   <g transform="scale(0.0092592592)">
    <path d="M -54, 0 C -54,29.807 -29.807,54 0,54 C 29.807,54 54,29.807 54,0 C 54,-29.807 29.807,-54 0,-54 C -29.807,-54 -54,-29.807 -54,0 z"/>
   </g>
  </marker>
  <marker id="DefaultArrow6" markerUnits="strokeWidth" viewBox="0 0 1 1" markerWidth="1" markerHeight="1" overflow="visible" orient="auto">
   <!-- REF_ARROW_DIAMOND -->
   <g transform="scale(0.0092592592)">
    <path d="M -63,0 L 0,63 L 63,0 L 0,-63 z"/>
   </g>
  </marker>
  <marker id="DefaultArrow7" markerUnits="strokeWidth" viewBox="0 0 1 1" markerWidth="1" markerHeight="1" overflow="visible" orient="auto">
   <!-- REF_ARROW_FEATHER -->
   <g transform="scale(0.0092592592)">
    <path d="M 18,-54 L 108,-54 L 63,0 L 108,54 L 18, 54 L -36,0 z"/>
   </g>
  </marker>
  <marker id="DefaultArrow8" markerUnits="strokeWidth" viewBox="0 0 1 1" markerWidth="1" markerHeight="1" overflow="visible" orient="auto">
   <!-- REF_ARROW_FEATHER2 -->
   <g transform="scale(0.0092592592)">
    <path d="M -36,0 L 18,-54 L 54,-54 L 18,-18 L 27,-18 L 63,-54 L 99,-54 L 63,-18 L 72,-18 L 108,-54 L 144,-54 L 90,0 L 144,54 L 108,54 L 72,18 L 63,18 L 99,54 L 63,54 L 27,18 L 18,18 L 54,54 L 18,54 z"/>
   </g>
  </marker>
  <marker id="DefaultArrow9" markerUnits="strokeWidth" viewBox="0 0 1 1" markerWidth="1" markerHeight="1" overflow="visible" orient="auto">
   <!-- REF_ARROW_HOLLOWDIAMOND -->
   <g transform="scale(0.0092592592)">
    <path d="M 0,45 L -45,0 L 0, -45 L 45, 0 z M 0, 63 L-63, 0 L 0, -63 L 63, 0 z"/>
   </g>
  </marker>
  <filter id="StainedFilter">
   <feBlend mode="multiply" in2="BackgroundImage" in="SourceGraphic" result="blend"/>
   <feComposite in="blend" in2="SourceAlpha" operator="in" result="comp"/>
  </filter>
  <filter id="BleachFilter">
   <feBlend mode="screen" in2="BackgroundImage" in="SourceGraphic" result="blend"/>
   <feComposite in="blend" in2="SourceAlpha" operator="in" result="comp"/>
  </filter>
  <filter id="InvertTransparencyBitmapFilter">
   <feComponentTransfer>
    <feFuncR type="gamma" amplitude="1.055" exponent=".416666666" offset="-0.055"/>
    <feFuncG type="gamma" amplitude="1.055" exponent=".416666666" offset="-0.055"/>
    <feFuncB type="gamma" amplitude="1.055" exponent=".416666666" offset="-0.055"/>
   </feComponentTransfer>
   <feComponentTransfer>
    <feFuncR type="linear" slope="-1" intercept="1"/>
    <feFuncG type="linear" slope="-1" intercept="1"/>
    <feFuncB type="linear" slope="-1" intercept="1"/>
    <feFuncA type="linear" slope="1" intercept="0"/>
   </feComponentTransfer>
   <feComponentTransfer>
    <feFuncR type="gamma" amplitude="1" exponent="2.4" offset="0"/>
    <feFuncG type="gamma" amplitude="1" exponent="2.4" offset="0"/>
    <feFuncB type="gamma" amplitude="1" exponent="2.4" offset="0"/>
   </feComponentTransfer>
  </filter>
 </defs>
 <g id="Document" fill="none" stroke="black" font-family="Times New Roman" font-size="16" transform="scale(1 -1)">
  <g id="Spread" transform="translate(0 -30.825)">
   <g id="Layer 1">
    <g id="Group" stroke-linejoin="round" stroke="none" stroke-width="0.233" stroke-miterlimit="79.8403193612775">
     <path d="M 154.768,0.252 C 153.707,0.431 152.629,0.699 151.572,1.115 L 151.196,1.281 L 150.92,1.249 C 150.89,1.246 150.859,1.244 150.829,1.243 C 150.49,1.233 150.143,1.25 149.796,1.301 L 141.886,2.432 C 141.073,2.547 140.321,2.824 139.657,3.224 C 139.628,3.241 139.598,3.261 139.571,3.282 L 139.503,3.332 L 139.047,3.205 C 139.017,3.197 138.986,3.189 138.955,3.184 C 137.566,2.929 136.187,2.939 134.882,3.101 C 133.809,3.232 132.721,3.453 131.672,3.814 L 129.26,4.869 L 129.202,4.846 C 127.433,4.225 125.638,4.12 123.975,4.282 C 123.349,4.342 122.713,4.444 122.078,4.597 L 120.262,5.196 L 119.487,5.046 C 119.143,5.01 118.792,5.004 118.438,5.029 L 110.841,5.575 C 110.227,5.619 109.639,5.756 109.093,5.97 L 108.217,6.473 L 107.499,6.183 C 107.162,6.081 106.812,6.008 106.451,5.967 C 105.743,5.884 104.938,5.827 104.13,5.871 C 103.308,5.915 102.51,6.056 101.803,6.218 C 101.449,6.298 101.11,6.408 100.786,6.546 L 99.903,7.018 L 99.453,6.815 C 97.964,6.25 96.46,6.122 95.16,6.159 C 93.868,6.193 92.372,6.404 90.911,7.052 L 90.086,7.479 L 89.72,7.287 L 89.666,7.26 C 88.112,6.552 86.509,6.319 85.039,6.331 C 83.577,6.341 81.976,6.598 80.433,7.328 L 79.578,7.791 L 78.946,7.339 C 78.089,6.828 77.097,6.528 76.045,6.502 L 69.654,6.347 L 68.708,6.421 L 68.46,6.371 C 67.913,6.258 67.392,6.205 66.919,6.185 C 66.408,6.161 65.825,6.171 65.215,6.251 C 64.989,6.28 64.74,6.315 64.52,6.353 C 64.485,6.36 64.45,6.367 64.415,6.377 L 64.066,6.475 L 63.599,6.316 C 63.571,6.305 63.542,6.297 63.513,6.29 C 62.787,6.108 61.99,5.969 61.139,5.931 C 60.299,5.897 59.498,5.963 58.757,6.078 C 58.727,6.082 58.696,6.088 58.667,6.095 L 58.365,6.169 L 56.865,5.73 C 56.293,5.614 55.728,5.544 55.182,5.51 C 53.715,5.418 52.107,5.562 50.518,6.179 C 50.153,6.319 49.797,6.481 49.452,6.664 L 49.397,6.694 L 49.366,6.712 L 48.234,5.842 C 47.781,5.58 47.288,5.375 46.762,5.237 C 45.946,5.025 45.05,4.833 44.151,4.754 C 43.248,4.674 42.333,4.7 41.469,4.771 C 40.927,4.816 40.405,4.932 39.915,5.111 L 38.916,5.609 L 38.869,5.574 C 38.284,5.173 37.676,4.842 37.06,4.568 C 35.77,3.998 34.427,3.683 33.117,3.535 C 32.046,3.412 30.936,3.372 29.807,3.48 L 29.475,3.525 L 26.836,2.922 C 26.383,2.859 25.939,2.821 25.39,2.8 L 24.459,2.8 C 23.864,2.8 23.283,2.888 22.731,3.054 L 22.645,3.087 L 21.175,2.371 C 20.792,2.249 20.414,2.14 20.031,2.044 C 19.618,1.941 19.188,1.854 18.732,1.791 C 18.255,1.725 17.781,1.692 17.312,1.676 L 16.958,1.677 L 16.666,1.604 C 16.637,1.597 16.606,1.591 16.577,1.585 L 9.053,0.39 C 5.806,-0.127 2.752,2.09 2.236,5.337 L 0.136,18.558 C -0.326,21.468 1.41,24.28 4.218,25.171 C 4.643,25.305 5.046,25.421 5.438,25.521 C 5.835,25.621 6.25,25.712 6.685,25.782 C 7.108,25.847 7.535,25.894 7.965,25.922 C 8.385,25.952 8.821,25.965 9.249,25.967 C 10.352,25.974 11.393,25.677 12.291,25.15 L 13.306,24.361 L 13.779,25.11 C 14.568,26.105 15.67,26.845 16.95,27.178 C 17.305,27.27 17.66,27.359 18,27.436 C 18.442,27.539 18.892,27.62 19.339,27.684 C 19.784,27.746 20.22,27.785 20.646,27.805 C 20.965,27.821 21.317,27.836 21.694,27.849 C 22.887,27.892 24.036,27.575 25.012,26.98 C 25.055,26.954 25.097,26.924 25.135,26.891 L 25.269,26.779 L 25.793,27.242 C 25.821,27.267 25.852,27.293 25.885,27.314 C 26.448,27.712 27.042,28.043 27.649,28.312 C 28.84,28.845 30.078,29.14 31.281,29.275 C 32.298,29.392 33.328,29.407 34.358,29.31 L 34.43,29.3 L 35.217,29.169 L 36.121,29.499 C 36.454,29.588 36.797,29.65 37.149,29.682 L 46.653,30.523 C 48.266,30.666 49.805,30.146 50.98,29.173 L 51.905,28.18 L 53.738,28.475 C 54.299,28.509 54.879,28.509 55.472,28.461 L 57.124,28.181 L 57.881,28.426 C 58.211,28.501 58.541,28.566 58.87,28.618 C 59.275,28.682 59.67,28.72 60.045,28.736 C 60.512,28.758 60.958,28.743 61.375,28.71 C 61.669,28.685 62.024,28.647 62.398,28.582 C 62.433,28.575 62.47,28.568 62.504,28.558 L 62.849,28.46 L 63.675,28.704 C 64.021,28.774 64.373,28.836 64.722,28.884 C 65.082,28.935 65.459,28.973 65.844,28.989 C 66.241,29.007 66.626,29.002 67.012,28.979 C 67.393,28.954 67.747,28.915 68.089,28.866 L 69.107,28.994 L 75.409,29.145 C 76.758,29.177 78.028,28.754 79.055,28.006 L 79.369,27.722 L 79.457,27.783 L 79.506,27.815 C 79.837,28.019 80.177,28.202 80.527,28.367 C 82.101,29.106 83.727,29.352 85.223,29.339 C 86.343,29.331 87.538,29.175 88.742,28.767 L 89.253,28.575 L 89.779,28.792 C 90.126,28.897 90.485,28.973 90.854,29.014 C 91.234,29.057 91.635,29.093 92.018,29.108 C 92.346,29.121 92.682,29.126 93.023,29.118 C 93.381,29.107 93.715,29.082 94.023,29.051 C 94.4,29.014 94.782,28.957 95.136,28.898 C 95.168,28.894 95.2,28.886 95.232,28.879 L 95.784,28.734 L 96.367,28.851 C 96.399,28.856 96.431,28.862 96.462,28.865 C 96.848,28.906 97.222,28.937 97.575,28.952 C 97.883,28.966 98.22,28.974 98.566,28.965 C 98.916,28.955 99.256,28.931 99.585,28.898 L 100.621,28.754 L 101.522,28.785 L 107.507,28.465 L 108.197,29.254 C 109.155,30.134 110.405,30.705 111.786,30.808 C 112.197,30.839 112.623,30.863 113.037,30.87 C 113.429,30.878 113.871,30.874 114.312,30.839 C 114.743,30.809 115.174,30.753 115.577,30.688 C 115.999,30.621 116.424,30.536 116.848,30.439 C 117.923,30.192 118.869,29.667 119.623,28.952 L 119.82,28.728 L 119.956,28.807 L 120.009,28.836 C 120.39,29.025 120.781,29.192 121.183,29.339 C 122.968,29.99 124.789,30.11 126.483,29.944 C 128.174,29.779 129.94,29.31 131.57,28.317 C 131.935,28.095 132.285,27.853 132.619,27.594 L 132.681,27.541 L 133.306,27.865 C 133.339,27.883 133.375,27.899 133.41,27.913 C 134.052,28.167 134.707,28.35 135.364,28.472 C 136.645,28.708 137.912,28.707 139.117,28.559 C 140.129,28.432 141.134,28.208 142.119,27.87 L 142.187,27.844 L 143.242,27.398 L 144.268,27.563 C 144.663,27.587 145.066,27.572 145.472,27.514 L 153.273,26.398 C 153.805,26.322 154.314,26.175 154.789,25.97 L 155.709,25.422 L 156.275,25.557 C 156.307,25.565 156.341,25.571 156.374,25.576 C 157.662,25.754 158.928,25.7 160.127,25.496 C 161.138,25.326 162.133,25.055 163.096,24.676 C 163.939,24.345 164.769,23.945 165.584,23.492 C 168.029,22.136 169.203,19.259 168.402,16.579 C 168.188,15.862 167.914,15.175 167.616,14.531 L 167.574,14.451 L 167.113,13.644 L 167.535,12.243 C 167.801,10.895 167.726,9.613 167.544,8.529 C 167.317,7.192 166.847,5.828 166.022,4.566 C 165.202,3.306 164.117,2.278 162.843,1.522 C 161.552,0.756 160.178,0.338 158.84,0.154 C 157.443,-0.039 156.064,0.033 154.768,0.252 Z" fill="#18263c" marker-start="none" marker-end="none"/>
     <path d="M 154.663,1.989 C 153.655,2.158 152.65,2.41 151.698,2.784 L 151.079,3.06 L 150.518,2.993 C 150.237,2.985 149.951,3 149.665,3.041 L 141.755,4.172 C 141.084,4.268 140.465,4.495 139.919,4.824 L 139.438,5.182 L 138.486,4.917 C 137.222,4.686 135.953,4.692 134.73,4.844 C 133.712,4.969 132.698,5.177 131.733,5.508 C 130.871,5.803 130.025,6.184 129.202,6.62 L 129.031,6.729 L 128.574,6.538 C 126.983,5.978 125.346,5.877 123.798,6.027 C 122.632,6.141 121.45,6.404 120.321,6.888 L 120.079,7.009 L 119.93,6.952 C 119.391,6.798 118.819,6.736 118.234,6.778 L 110.636,7.324 C 109.624,7.397 108.704,7.772 107.958,8.359 L 107.713,8.211 C 107.205,7.952 106.646,7.779 106.052,7.71 C 105.374,7.632 104.634,7.582 103.906,7.621 C 103.164,7.66 102.43,7.789 101.757,7.942 C 101.174,8.075 100.637,8.307 100.161,8.619 L 99.75,8.926 C 99.433,8.758 99.12,8.618 98.802,8.498 C 97.481,7.997 96.123,7.875 94.91,7.909 C 93.704,7.942 92.354,8.138 91.056,8.713 C 90.745,8.85 90.441,9.008 90.146,9.185 L 89.85,9.39 L 88.951,8.917 C 87.567,8.286 86.122,8.07 84.768,8.081 C 83.419,8.091 81.977,8.328 80.601,8.978 C 80.286,9.127 79.979,9.293 79.683,9.476 L 79.195,9.82 L 78.796,9.418 C 77.963,8.711 76.895,8.281 75.739,8.253 L 69.348,8.098 C 69.009,8.089 68.678,8.116 68.344,8.177 L 67.969,8.1 C 67.487,8.001 67.021,7.952 66.593,7.935 C 66.128,7.913 65.609,7.922 65.07,7.993 C 64.85,8.021 64.619,8.054 64.421,8.089 L 63.755,8.276 L 62.979,8.009 C 62.306,7.841 61.578,7.715 60.814,7.681 C 60.059,7.65 59.328,7.71 58.638,7.816 L 58.036,7.963 L 57.931,7.915 C 56.901,7.514 55.844,7.322 54.836,7.259 C 53.484,7.174 52.034,7.309 50.618,7.858 C 50.29,7.985 49.972,8.13 49.663,8.293 L 48.888,8.763 L 48.44,8.23 C 47.842,7.631 47.084,7.181 46.217,6.954 C 45.431,6.749 44.596,6.572 43.779,6.501 C 42.955,6.428 42.104,6.45 41.275,6.518 C 40.384,6.592 39.559,6.903 38.867,7.387 L 38.605,7.607 L 37.994,7.141 C 37.468,6.78 36.917,6.479 36.354,6.229 C 35.181,5.71 33.945,5.418 32.719,5.279 C 31.702,5.163 30.667,5.127 29.649,5.223 L 29.098,5.3 L 28.989,5.253 C 28.136,4.994 27.267,4.782 26.412,4.663 C 25.996,4.605 25.588,4.57 25.09,4.55 L 24.179,4.55 C 23.688,4.55 23.21,4.623 22.756,4.76 L 22.201,5.021 L 21.833,4.686 C 21.451,4.426 21.028,4.218 20.574,4.072 C 20.211,3.956 19.855,3.853 19.498,3.763 C 19.117,3.669 18.723,3.59 18.308,3.532 C 17.877,3.472 17.441,3.441 17.016,3.427 L 16.55,3.428 L 16.132,3.324 L 8.609,2.128 C 5.934,1.702 3.419,3.528 2.994,6.203 L 0.894,19.424 C 0.513,21.82 1.943,24.136 4.256,24.869 C 4.663,24.999 5.047,25.109 5.417,25.203 C 5.791,25.298 6.175,25.382 6.57,25.445 C 6.958,25.506 7.353,25.549 7.756,25.575 C 8.152,25.603 8.564,25.616 8.975,25.618 C 10.79,25.628 12.409,24.641 13.265,23.139 L 13.345,22.965 L 13.765,24.274 C 14.384,25.537 15.529,26.496 16.934,26.862 C 17.283,26.953 17.628,27.039 17.955,27.113 C 18.367,27.209 18.787,27.285 19.206,27.345 C 19.614,27.402 20.019,27.437 20.419,27.457 C 20.732,27.473 21.077,27.487 21.452,27.5 C 22.435,27.535 23.38,27.275 24.185,26.784 L 25.011,26.098 L 26.209,27.156 C 26.714,27.512 27.247,27.81 27.797,28.053 C 28.874,28.535 30.005,28.808 31.119,28.933 C 32.068,29.041 33.026,29.055 33.979,28.965 L 35.115,28.777 L 35.327,28.898 C 35.832,29.133 36.382,29.285 36.962,29.336 L 46.466,30.177 C 48.236,30.334 49.901,29.524 50.888,28.145 L 51.152,27.699 L 51.433,27.793 C 52.134,27.98 52.838,28.084 53.525,28.127 C 54.555,28.192 55.645,28.125 56.731,27.841 L 56.906,27.782 L 57.003,27.834 C 57.268,27.946 57.545,28.037 57.835,28.103 C 58.145,28.173 58.452,28.234 58.753,28.281 C 59.118,28.338 59.475,28.373 59.814,28.388 C 60.228,28.407 60.629,28.394 61.008,28.363 C 61.283,28.34 61.605,28.306 61.94,28.248 L 62.617,28.056 L 62.747,28.123 C 63.02,28.231 63.305,28.316 63.602,28.376 C 63.932,28.442 64.262,28.5 64.586,28.545 C 64.92,28.591 65.264,28.626 65.61,28.641 C 65.968,28.657 66.317,28.652 66.667,28.631 C 67.014,28.609 67.342,28.573 67.657,28.528 L 67.792,28.495 L 67.867,28.52 C 68.184,28.593 68.514,28.636 68.853,28.644 L 75.154,28.796 C 76.636,28.831 78.001,28.2 78.935,27.155 L 78.994,27.075 L 79.778,27.622 C 80.073,27.804 80.378,27.969 80.694,28.117 C 82.094,28.774 83.558,29.001 84.935,28.99 C 85.965,28.981 87.046,28.839 88.11,28.478 L 88.985,28.151 C 89.512,28.425 90.084,28.602 90.692,28.671 C 91.057,28.713 91.43,28.745 91.782,28.759 C 92.09,28.772 92.402,28.776 92.716,28.769 C 93.04,28.759 93.349,28.736 93.639,28.707 C 93.985,28.672 94.341,28.62 94.685,28.563 L 95.472,28.357 L 96.293,28.521 C 96.664,28.56 97.017,28.589 97.343,28.604 C 97.634,28.617 97.945,28.624 98.259,28.615 C 98.578,28.607 98.891,28.585 99.2,28.554 C 99.539,28.519 99.888,28.471 100.273,28.404 L 100.328,28.407 C 100.609,28.442 100.897,28.452 101.187,28.437 L 107.756,28.086 L 107.924,28.376 C 108.745,29.552 110.066,30.349 111.585,30.462 C 111.984,30.492 112.388,30.514 112.776,30.521 C 113.148,30.528 113.555,30.524 113.955,30.493 C 114.35,30.465 114.75,30.413 115.131,30.352 C 115.526,30.288 115.929,30.208 116.335,30.116 C 117.515,29.846 118.508,29.166 119.186,28.251 L 119.291,28.079 L 120.197,28.596 C 120.542,28.768 120.898,28.92 121.263,29.053 C 122.869,29.639 124.527,29.753 126.101,29.599 C 127.673,29.445 129.279,29.012 130.744,28.121 C 131.075,27.919 131.392,27.7 131.696,27.464 L 132.261,26.971 L 133.518,27.637 C 134.092,27.865 134.682,28.03 135.275,28.139 C 136.433,28.353 137.591,28.355 138.708,28.217 C 139.653,28.098 140.587,27.89 141.499,27.577 L 142.895,26.987 L 143.099,27.063 C 143.716,27.225 144.374,27.27 145.044,27.175 L 152.844,26.059 C 153.722,25.933 154.518,25.579 155.178,25.061 L 155.244,24.999 L 156.239,25.236 C 157.406,25.398 158.562,25.35 159.672,25.161 C 160.615,25.003 161.539,24.751 162.433,24.4 C 163.225,24.088 164.014,23.708 164.796,23.275 C 166.809,22.157 167.775,19.788 167.116,17.581 C 166.919,16.922 166.664,16.282 166.383,15.672 L 165.681,14.444 L 165.752,14.314 C 165.965,13.802 166.121,13.274 166.226,12.741 C 166.459,11.552 166.397,10.404 166.229,9.405 C 166.022,8.188 165.597,6.965 164.863,5.841 C 164.132,4.717 163.166,3.802 162.027,3.126 C 160.876,2.442 159.639,2.063 158.417,1.895 C 157.147,1.72 155.878,1.783 154.663,1.989 Z" fill="#fcaf08" marker-start="none" marker-end="none"/>
     <path d="M 155.268,5.578 C 154.443,5.717 153.694,5.912 153.03,6.173 C 152.713,6.298 152.39,6.442 152.061,6.605 L 151.27,7.035 L 151.008,6.811 C 150.766,6.667 150.477,6.603 150.182,6.645 L 142.271,7.777 C 141.579,7.876 141.098,8.516 141.197,9.208 L 141.415,10.733 L 140.924,10.084 C 140.661,9.81 140.366,9.565 140.041,9.353 C 139.387,8.925 138.643,8.648 137.829,8.498 C 137.003,8.347 136.114,8.342 135.176,8.457 C 134.343,8.559 133.587,8.721 132.914,8.952 C 132.267,9.173 131.597,9.473 130.904,9.839 C 130.393,10.109 130.13,10.691 130.265,11.253 C 130.384,11.743 130.545,12.248 130.746,12.764 L 130.924,13.172 L 130.693,12.699 C 130.438,12.283 130.145,11.899 129.813,11.549 C 129.133,10.83 128.31,10.306 127.364,9.972 C 126.386,9.628 125.304,9.539 124.151,9.651 C 122.996,9.763 121.95,10.062 121.054,10.588 C 120.62,10.843 120.224,11.138 119.857,11.492 L 119.807,11.342 C 119.649,10.757 119.098,10.365 118.494,10.409 L 110.897,10.955 C 110.2,11.006 109.676,11.612 109.726,12.308 L 110.686,25.661 C 110.731,26.286 111.228,26.785 111.854,26.831 C 112.209,26.858 112.539,26.875 112.844,26.88 C 113.144,26.887 113.43,26.882 113.689,26.862 C 113.957,26.844 114.246,26.807 114.55,26.758 C 114.858,26.708 115.184,26.644 115.525,26.566 C 116.134,26.427 116.551,25.864 116.506,25.242 L 115.846,16.075 L 117.863,15.929 L 117.772,16.867 C 117.758,17.386 117.778,17.918 117.831,18.463 C 117.938,19.55 118.165,20.568 118.52,21.512 C 118.884,22.474 119.391,23.32 120.055,24.029 C 120.735,24.753 121.56,25.287 122.509,25.633 C 123.495,25.992 124.587,26.089 125.747,25.975 C 126.905,25.862 127.955,25.556 128.849,25.012 C 129.708,24.488 130.408,23.806 130.933,22.967 C 131.19,22.554 131.402,22.117 131.571,21.654 L 131.846,20.604 L 131.96,21.128 C 132.077,21.495 132.232,21.843 132.427,22.171 C 132.804,22.804 133.294,23.333 133.899,23.743 C 134.505,24.155 135.19,24.422 135.934,24.558 C 136.67,24.695 137.449,24.703 138.26,24.603 C 138.971,24.514 139.658,24.359 140.317,24.133 C 140.949,23.917 141.604,23.638 142.283,23.302 C 142.816,23.037 143.093,22.436 142.948,21.859 C 142.832,21.399 142.668,20.916 142.461,20.414 C 142.247,19.891 141.995,19.399 141.704,18.936 C 141.343,18.363 140.592,18.177 140.004,18.515 C 139.73,18.673 139.397,18.848 139.002,19.04 C 138.878,19.101 138.72,19.159 138.524,19.211 L 138.228,19.267 L 138.806,18.95 C 139.333,18.658 139.808,18.367 140.235,18.073 C 140.721,17.737 141.143,17.344 141.49,16.889 C 141.678,16.645 141.835,16.383 141.964,16.107 L 142.12,15.66 L 143.097,22.497 C 143.196,23.189 143.837,23.67 144.528,23.571 L 152.328,22.455 C 152.932,22.368 153.388,21.863 153.413,21.253 C 153.426,20.944 153.426,20.654 153.416,20.384 L 153.354,19.673 L 153.82,20.241 C 154.076,20.492 154.359,20.715 154.67,20.906 C 155.295,21.292 155.992,21.526 156.74,21.631 C 157.481,21.733 158.261,21.708 159.065,21.572 C 159.774,21.452 160.453,21.266 161.101,21.011 C 161.722,20.767 162.365,20.459 163.029,20.09 C 163.548,19.803 163.798,19.191 163.628,18.623 C 163.491,18.167 163.306,17.693 163.078,17.2 C 162.84,16.687 162.567,16.206 162.255,15.758 C 161.868,15.201 161.111,15.049 160.539,15.412 C 160.272,15.582 159.948,15.772 159.561,15.981 C 159.439,16.048 159.284,16.112 159.091,16.173 L 158.798,16.241 L 159.362,15.901 C 159.874,15.585 160.335,15.273 160.749,14.959 C 161.219,14.603 161.624,14.192 161.952,13.723 C 162.303,13.217 162.534,12.651 162.652,12.041 C 162.778,11.401 162.757,10.715 162.639,10.01 C 162.504,9.214 162.237,8.477 161.813,7.829 C 161.391,7.181 160.837,6.654 160.169,6.257 C 159.497,5.858 158.74,5.615 157.921,5.502 C 157.09,5.388 156.201,5.421 155.268,5.578 Z M 6.589,6.774 L 4.489,19.995 C 4.391,20.613 4.76,21.211 5.356,21.399 C 5.702,21.508 6.02,21.6 6.313,21.675 C 6.607,21.748 6.883,21.808 7.139,21.849 C 7.404,21.89 7.692,21.922 8.004,21.942 C 8.314,21.965 8.646,21.975 8.995,21.977 C 9.62,21.981 10.154,21.528 10.252,20.911 L 11.693,11.834 L 14.704,12.313 C 14.852,12.336 15,12.332 15.142,12.305 L 15.244,12.266 L 16.923,22.323 C 17.006,22.815 17.369,23.213 17.852,23.339 C 18.176,23.423 18.483,23.5 18.771,23.565 C 19.08,23.637 19.396,23.695 19.714,23.74 C 19.993,23.779 20.288,23.805 20.6,23.821 C 20.89,23.835 21.217,23.849 21.583,23.862 C 22.09,23.88 22.559,23.594 22.773,23.135 L 27.263,13.558 L 27.287,13.693 C 27.446,14.414 28.187,14.847 28.893,14.631 C 29.993,14.295 30.825,14.205 31.432,14.274 L 31.978,14.381 L 31.67,14.469 L 30.601,14.737 C 30.071,14.863 29.563,15.035 29.087,15.255 C 28.586,15.489 28.133,15.788 27.732,16.158 C 27.32,16.542 26.988,16.995 26.737,17.504 C 26.47,18.045 26.316,18.65 26.243,19.288 C 26.153,20.086 26.201,20.86 26.427,21.588 C 26.646,22.291 26.999,22.92 27.49,23.459 C 27.983,24.002 28.587,24.421 29.277,24.727 C 29.962,25.033 30.719,25.224 31.529,25.315 C 32.242,25.397 32.946,25.406 33.638,25.341 C 34.304,25.278 35.008,25.159 35.745,24.99 C 35.89,24.957 36.024,24.9 36.144,24.823 L 36.192,24.78 L 36.261,25.012 C 36.453,25.398 36.835,25.67 37.284,25.709 L 46.787,26.55 C 47.396,26.605 47.956,26.215 48.118,25.626 C 48.2,25.332 48.267,25.05 48.319,24.781 C 48.373,24.508 48.412,24.242 48.434,23.983 C 48.479,23.479 48.468,22.908 48.416,22.283 C 48.365,21.671 47.879,21.183 47.267,21.129 L 45.421,20.966 L 46.232,11.812 C 46.286,11.197 45.889,10.632 45.293,10.477 C 44.609,10.297 43.993,10.174 43.46,10.127 C 42.907,10.079 42.275,10.089 41.575,10.147 C 40.962,10.197 40.474,10.683 40.419,11.296 L 39.609,20.452 L 37.763,20.288 C 37.167,20.235 36.615,20.608 36.442,21.182 L 36.396,21.406 L 36.203,20.612 C 35.985,19.968 35.297,19.612 34.645,19.805 C 34.346,19.894 33.984,19.986 33.552,20.08 C 33.417,20.11 33.25,20.13 33.047,20.135 L 32.747,20.119 L 33.383,19.948 C 33.964,19.787 34.494,19.614 34.976,19.428 C 35.527,19.216 36.031,18.933 36.475,18.571 C 36.953,18.184 37.331,17.702 37.613,17.151 C 37.912,16.571 38.082,15.905 38.162,15.195 C 38.254,14.393 38.2,13.611 37.974,12.871 C 37.747,12.13 37.361,11.473 36.829,10.905 C 36.293,10.337 35.632,9.892 34.877,9.557 C 34.11,9.217 33.247,9.002 32.307,8.896 C 31.476,8.801 30.701,8.781 29.993,8.848 C 29.652,8.88 29.302,8.929 28.94,8.995 L 28.473,9.098 L 28.406,9.005 C 28.273,8.886 28.112,8.792 27.929,8.736 C 27.198,8.514 26.523,8.355 25.909,8.27 C 25.619,8.229 25.329,8.203 25.015,8.191 L 24.179,8.191 C 23.673,8.191 23.216,8.492 23.016,8.957 L 22.423,10.335 L 21.41,10.111 L 20.514,10.053 L 20.33,8.585 C 20.269,8.098 19.93,7.689 19.462,7.539 C 19.163,7.443 18.882,7.362 18.619,7.296 C 18.349,7.23 18.08,7.176 17.809,7.138 C 17.532,7.1 17.229,7.077 16.9,7.066 L 15.981,7.065 C 15.85,6.992 15.71,6.942 15.561,6.919 L 8.037,5.723 C 7.348,5.614 6.7,6.084 6.589,6.774 Z M 51.935,11.252 C 51.146,11.559 50.464,12.026 49.912,12.651 C 49.376,13.258 48.978,13.972 48.705,14.769 C 48.437,15.549 48.281,16.389 48.224,17.282 C 48.169,18.175 48.218,19.031 48.384,19.845 C 48.554,20.68 48.86,21.445 49.314,22.119 C 49.781,22.812 50.395,23.366 51.134,23.778 C 51.907,24.21 52.795,24.433 53.753,24.494 C 54.714,24.555 55.62,24.443 56.439,24.109 C 56.828,23.951 57.192,23.753 57.526,23.516 L 57.674,23.382 L 57.717,23.703 C 57.851,24.119 58.195,24.451 58.642,24.553 C 58.883,24.608 59.11,24.652 59.32,24.684 C 59.545,24.72 59.766,24.741 59.98,24.751 C 60.219,24.762 60.462,24.755 60.705,24.736 C 60.92,24.717 61.127,24.694 61.318,24.661 C 61.663,24.6 61.97,24.4 62.161,24.105 L 63.354,22.276 L 63.301,23.51 C 63.274,24.133 63.704,24.683 64.316,24.806 C 64.592,24.861 64.85,24.906 65.088,24.939 C 65.328,24.972 65.557,24.994 65.772,25.004 C 65.989,25.013 66.212,25.011 66.444,24.997 C 66.674,24.983 66.907,24.957 67.144,24.923 C 67.446,24.88 67.711,24.733 67.904,24.52 L 67.949,24.447 L 68.054,24.612 C 68.278,24.847 68.591,24.996 68.94,25.004 L 75.242,25.156 C 75.853,25.171 76.387,24.745 76.511,24.147 C 76.562,23.902 76.601,23.67 76.631,23.446 C 76.661,23.216 76.679,22.992 76.683,22.775 C 76.694,22.351 76.654,21.88 76.58,21.377 C 76.511,20.92 76.204,20.55 75.795,20.386 L 75.743,20.376 L 75.824,20.183 C 75.937,19.689 76.007,19.216 76.019,18.77 C 76.03,18.316 75.983,17.837 75.892,17.342 C 75.864,17.194 75.812,17.057 75.74,16.933 L 75.57,16.73 L 75.963,16.672 C 76.368,16.537 76.69,16.201 76.794,15.767 C 76.91,15.285 76.98,14.819 76.991,14.37 C 77.002,13.899 76.957,13.416 76.863,12.922 C 76.752,12.336 76.247,11.907 75.651,11.893 L 69.26,11.738 C 68.91,11.729 68.591,11.863 68.357,12.086 L 68.315,12.146 L 68.187,12.01 C 68.081,11.928 67.959,11.863 67.828,11.818 C 67.654,11.758 67.449,11.709 67.241,11.667 C 66.978,11.613 66.706,11.583 66.434,11.572 C 66.129,11.558 65.829,11.566 65.541,11.603 C 65.336,11.63 65.168,11.655 65.05,11.675 C 64.707,11.735 64.403,11.935 64.212,12.225 L 63,14.064 L 63.055,12.824 C 63.081,12.223 62.681,11.687 62.097,11.542 C 61.602,11.418 61.121,11.339 60.658,11.319 C 60.197,11.299 59.708,11.335 59.195,11.414 C 58.748,11.483 58.384,11.782 58.219,12.18 L 58.198,12.28 L 57.209,11.586 C 56.442,11.166 55.559,10.952 54.608,10.892 C 53.653,10.832 52.752,10.936 51.935,11.252 Z M 156.471,10.94 L 156.202,11.108 L 155.246,11.663 C 154.771,11.931 154.33,12.237 153.935,12.58 C 153.518,12.942 153.163,13.356 152.882,13.823 C 152.593,14.306 152.4,14.833 152.3,15.392 C 152.246,15.688 152.223,15.992 152.228,16.302 L 152.314,17.207 L 152.003,17.081 C 151.859,17.051 151.708,17.044 151.556,17.067 L 151.647,16.923 C 151.704,16.791 151.739,16.647 151.748,16.498 C 151.785,15.881 151.772,15.305 151.698,14.779 C 151.621,14.243 151.471,13.684 151.262,13.108 C 151.057,12.545 150.486,12.203 149.893,12.288 L 147.579,12.62 L 147.562,12.499 L 150.948,12.015 C 151.243,11.973 151.504,11.83 151.695,11.624 L 151.766,11.567 C 152.123,12.225 152.955,12.438 153.574,12.035 C 154.539,11.406 155.313,11.091 155.916,10.99 L 156.471,10.94 Z M 102.566,11.491 C 101.966,11.629 101.551,12.178 101.584,12.793 L 101.962,19.882 L 100.735,19.947 L 100.619,19.974 L 100.549,17.428 C 100.527,16.622 100.438,15.872 100.273,15.185 C 100.097,14.454 99.796,13.785 99.344,13.214 C 98.866,12.612 98.24,12.178 97.512,11.903 C 96.771,11.622 95.923,11.523 95.012,11.548 C 94.102,11.573 93.259,11.719 92.533,12.04 C 91.824,12.357 91.223,12.822 90.778,13.45 C 90.569,13.748 90.399,14.067 90.263,14.405 L 90.102,14.97 L 90.021,14.758 C 89.84,14.394 89.625,14.052 89.374,13.735 C 88.858,13.082 88.207,12.579 87.441,12.229 C 86.646,11.867 85.752,11.714 84.798,11.722 C 83.843,11.729 82.949,11.896 82.157,12.27 C 81.393,12.63 80.745,13.143 80.238,13.807 C 79.745,14.449 79.398,15.19 79.182,16.005 C 78.97,16.802 78.874,17.651 78.881,18.545 C 78.887,19.44 78.997,20.29 79.221,21.09 C 79.449,21.912 79.807,22.654 80.309,23.294 C 80.824,23.951 81.474,24.461 82.241,24.821 C 83.043,25.198 83.944,25.357 84.905,25.349 C 85.865,25.342 86.763,25.168 87.556,24.777 C 88.312,24.404 88.95,23.885 89.453,23.221 L 89.937,22.419 L 89.976,23.831 C 89.994,24.461 90.473,24.983 91.099,25.053 C 91.409,25.088 91.69,25.112 91.936,25.121 C 92.171,25.131 92.4,25.134 92.621,25.129 C 92.83,25.123 93.048,25.107 93.274,25.085 C 93.514,25.061 93.788,25.021 94.09,24.971 C 94.714,24.868 95.166,24.32 95.148,23.688 L 94.988,17.895 C 94.975,17.428 94.984,17.054 95.008,16.769 C 95.019,16.636 95.036,16.535 95.056,16.447 L 95.146,16.421 L 95.248,16.434 C 95.27,16.514 95.291,16.611 95.308,16.742 C 95.346,17.035 95.373,17.412 95.386,17.884 L 95.546,23.678 C 95.563,24.311 96.047,24.834 96.677,24.901 C 96.994,24.934 97.273,24.957 97.509,24.967 C 97.736,24.977 97.955,24.981 98.161,24.976 C 98.376,24.97 98.601,24.954 98.835,24.932 C 99.077,24.906 99.352,24.869 99.66,24.818 C 99.816,24.792 99.96,24.738 100.09,24.663 L 100.199,24.569 L 100.56,24.749 C 100.697,24.791 100.844,24.809 100.994,24.802 L 108.616,24.395 C 109.227,24.362 109.727,23.896 109.804,23.29 C 109.835,23.042 109.857,22.806 109.869,22.579 C 109.88,22.353 109.882,22.128 109.869,21.907 C 109.847,21.485 109.771,21.019 109.657,20.522 C 109.52,19.922 108.971,19.508 108.357,19.54 L 107.129,19.606 L 106.752,12.516 C 106.717,11.901 106.245,11.398 105.633,11.326 C 105.063,11.262 104.546,11.233 104.1,11.256 C 103.636,11.281 103.12,11.365 102.566,11.491 Z M 136.139,13.867 L 135.859,14.025 L 134.883,14.536 C 134.398,14.782 133.944,15.067 133.533,15.393 C 133.1,15.738 132.727,16.135 132.427,16.588 L 132.046,17.298 L 132.037,17.074 C 131.983,16.53 131.901,16.004 131.786,15.497 L 131.43,14.313 L 131.739,14.711 C 132.137,15.044 132.72,15.114 133.197,14.832 C 134.187,14.247 134.976,13.965 135.582,13.891 L 136.139,13.867 Z M 126.063,17.657 C 126.134,18.382 126.303,20.453 125.235,20.557 C 124.18,20.661 123.905,18.901 123.805,17.879 C 123.681,16.605 123.801,15.851 123.984,15.457 C 124.107,15.193 124.268,15.052 124.674,15.013 C 125.702,14.913 125.968,16.684 126.063,17.657 Z M 54.829,17.697 C 54.779,18.481 54.603,19.678 54.074,19.643 C 53.44,19.604 53.487,18.172 53.523,17.614 C 53.585,16.608 53.772,16.083 53.929,15.851 C 54.005,15.737 54.061,15.682 54.306,15.698 C 54.921,15.736 54.859,17.215 54.829,17.697 Z M 85.498,18.493 C 85.503,19.279 85.413,20.485 84.882,20.49 C 84.246,20.495 84.193,19.059 84.188,18.503 C 84.181,17.496 84.33,16.958 84.471,16.715 C 84.539,16.597 84.591,16.538 84.834,16.536 C 85.451,16.532 85.494,18.011 85.498,18.493 Z" fill="#d37407" marker-start="none" marker-end="none"/>
     <g id="Group_1" fill-rule="nonzero" stroke-linecap="round" fill="#ffffff">
      <path d="M 5.739,20.194 C 6.063,20.297 6.358,20.381 6.625,20.449 C 6.891,20.516 7.129,20.566 7.338,20.6 C 7.559,20.635 7.81,20.663 8.091,20.681 C 8.371,20.701 8.675,20.712 9.003,20.713 L 10.643,10.387 L 14.903,11.064 C 15.013,10.766 15.094,10.506 15.15,10.281 C 15.204,10.056 15.246,9.852 15.276,9.667 C 15.309,9.458 15.334,9.239 15.352,9.008 C 15.369,8.778 15.373,8.498 15.363,8.169 L 7.839,6.973 L 5.739,20.194 Z" marker-start="none" marker-end="none"/>
      <path d="M 19.076,8.744 C 18.799,8.655 18.545,8.582 18.315,8.525 C 18.083,8.468 17.857,8.423 17.635,8.392 C 17.413,8.361 17.155,8.341 16.861,8.331 C 16.567,8.322 16.238,8.323 15.872,8.335 L 18.171,22.115 C 18.487,22.197 18.781,22.27 19.055,22.333 C 19.329,22.396 19.608,22.447 19.891,22.488 C 20.125,22.52 20.383,22.544 20.664,22.558 C 20.945,22.572 21.266,22.585 21.629,22.598 L 27.561,9.947 C 26.874,9.738 26.265,9.596 25.735,9.522 C 25.488,9.488 25.24,9.466 24.99,9.456 C 24.739,9.447 24.47,9.447 24.179,9.456 L 23.118,11.928 C 22.787,11.782 22.467,11.662 22.159,11.569 C 21.852,11.475 21.544,11.407 21.236,11.364 C 20.952,11.325 20.66,11.306 20.357,11.307 C 20.056,11.309 19.738,11.332 19.406,11.373 L 19.076,8.744 Z M 20.301,18.869 L 19.726,13.944 C 19.944,13.911 20.148,13.89 20.339,13.878 C 20.528,13.867 20.722,13.876 20.919,13.903 C 21.129,13.932 21.333,13.976 21.533,14.035 C 21.732,14.095 21.938,14.171 22.151,14.263 L 20.301,18.869 Z" marker-start="none" marker-end="none"/>
      <path d="M 33.049,18.729 C 33.592,18.578 34.083,18.417 34.522,18.248 C 34.961,18.079 35.346,17.86 35.678,17.59 C 36.009,17.321 36.279,16.982 36.488,16.575 C 36.698,16.166 36.837,15.659 36.906,15.053 C 36.98,14.397 36.934,13.793 36.765,13.242 C 36.596,12.69 36.31,12.201 35.908,11.772 C 35.505,11.345 34.991,10.992 34.364,10.714 C 33.739,10.436 33.005,10.249 32.164,10.154 C 31.398,10.066 30.713,10.051 30.112,10.108 C 29.51,10.165 28.855,10.284 28.145,10.466 C 28.145,10.905 28.18,11.376 28.248,11.878 C 28.316,12.381 28.407,12.895 28.523,13.422 C 29.717,13.057 30.735,12.922 31.575,13.018 C 32.206,13.09 32.687,13.242 33.017,13.473 C 33.348,13.705 33.487,14.056 33.433,14.526 C 33.41,14.723 33.354,14.889 33.264,15.023 C 33.173,15.157 33.061,15.267 32.926,15.352 C 32.79,15.437 32.642,15.504 32.48,15.554 C 32.318,15.605 32.153,15.651 31.985,15.695 L 30.902,15.967 C 30.438,16.077 30.011,16.223 29.621,16.404 C 29.231,16.585 28.889,16.812 28.594,17.085 C 28.3,17.359 28.059,17.685 27.872,18.064 C 27.685,18.444 27.562,18.9 27.501,19.432 C 27.426,20.087 27.471,20.681 27.636,21.213 C 27.802,21.746 28.065,22.211 28.426,22.609 C 28.788,23.008 29.243,23.329 29.792,23.572 C 30.34,23.817 30.967,23.979 31.672,24.059 C 32.303,24.131 32.919,24.138 33.52,24.081 C 34.122,24.025 34.77,23.917 35.464,23.758 C 35.46,23.357 35.42,22.911 35.345,22.419 C 35.27,21.928 35.156,21.462 35.006,21.018 C 34.669,21.118 34.276,21.218 33.826,21.316 C 33.376,21.416 32.83,21.429 32.186,21.355 C 31.989,21.333 31.802,21.293 31.627,21.236 C 31.452,21.178 31.298,21.101 31.164,21.004 C 31.032,20.908 30.93,20.783 30.859,20.632 C 30.789,20.48 30.766,20.298 30.79,20.087 C 30.831,19.729 30.978,19.477 31.233,19.33 C 31.487,19.184 31.783,19.067 32.118,18.98 L 33.049,18.729 Z" marker-start="none" marker-end="none"/>
      <path d="M 40.758,21.824 L 37.652,21.548 C 37.494,22.072 37.395,22.557 37.355,23.003 C 37.319,23.412 37.332,23.895 37.396,24.45 L 46.899,25.291 C 46.973,25.023 47.033,24.772 47.078,24.539 C 47.124,24.305 47.156,24.084 47.175,23.872 C 47.211,23.463 47.204,22.969 47.156,22.39 L 44.05,22.115 L 44.972,11.7 C 44.324,11.531 43.784,11.426 43.35,11.388 C 42.891,11.348 42.335,11.354 41.68,11.408 L 40.758,21.824 Z" marker-start="none" marker-end="none"/>
      <path d="M 49.486,17.362 C 49.438,18.157 49.483,18.9 49.624,19.593 C 49.765,20.285 50.012,20.891 50.364,21.412 C 50.715,21.933 51.178,22.354 51.751,22.674 C 52.324,22.995 53.019,23.18 53.834,23.232 C 54.649,23.283 55.358,23.185 55.962,22.939 C 56.566,22.692 57.076,22.333 57.489,21.859 C 57.903,21.387 58.223,20.816 58.45,20.146 C 58.677,19.477 58.815,18.744 58.865,17.95 C 58.914,17.154 58.868,16.416 58.726,15.733 C 58.584,15.051 58.338,14.452 57.986,13.936 C 57.634,13.42 57.174,13.006 56.604,12.697 C 56.036,12.387 55.343,12.206 54.528,12.155 C 53.713,12.104 53.002,12.196 52.393,12.432 C 51.784,12.669 51.274,13.021 50.86,13.489 C 50.447,13.957 50.127,14.521 49.901,15.18 C 49.676,15.839 49.537,16.566 49.486,17.362 Z M 56.092,17.776 C 55.956,19.943 55.256,20.986 53.994,20.907 C 52.702,20.826 52.124,19.702 52.261,17.535 C 52.328,16.452 52.535,15.653 52.881,15.142 C 53.228,14.63 53.729,14.395 54.385,14.436 C 55.658,14.516 56.226,15.629 56.092,17.776 Z" marker-start="none" marker-end="none"/>
      <path d="M 58.923,23.319 C 59.141,23.369 59.339,23.407 59.517,23.435 C 59.694,23.463 59.868,23.48 60.038,23.487 C 60.216,23.496 60.404,23.491 60.599,23.475 C 60.794,23.459 60.962,23.439 61.102,23.415 L 64.821,17.716 L 64.565,23.566 C 64.822,23.617 65.054,23.657 65.262,23.686 C 65.47,23.715 65.659,23.733 65.828,23.74 C 65.997,23.748 66.176,23.747 66.367,23.735 C 66.556,23.723 66.757,23.701 66.967,23.671 L 67.418,13.015 C 67.32,12.981 67.177,12.945 66.989,12.907 C 66.802,12.868 66.598,12.845 66.379,12.836 C 66.13,12.824 65.905,12.832 65.706,12.858 C 65.505,12.884 65.359,12.906 65.269,12.922 L 61.537,18.589 L 61.792,12.769 C 61.358,12.661 60.962,12.599 60.604,12.583 C 60.245,12.568 59.841,12.595 59.389,12.665 L 58.923,23.319 Z" marker-start="none" marker-end="none"/>
      <path d="M 74.754,18.739 C 74.763,18.391 74.727,18.002 74.648,17.572 L 71.766,17.502 L 71.817,15.381 L 75.565,15.472 C 75.665,15.056 75.719,14.678 75.727,14.341 C 75.736,13.972 75.7,13.578 75.621,13.158 L 69.23,13.003 L 68.971,23.74 L 75.273,23.892 C 75.317,23.674 75.352,23.471 75.377,23.282 C 75.401,23.094 75.415,22.914 75.419,22.745 C 75.428,22.417 75.397,22.023 75.329,21.562 L 71.67,21.474 L 71.709,19.832 L 74.592,19.901 C 74.692,19.465 74.746,19.078 74.754,18.739 Z" marker-start="none" marker-end="none"/>
      <path d="M 80.146,18.536 C 80.152,19.332 80.25,20.071 80.44,20.751 C 80.629,21.433 80.918,22.02 81.305,22.515 C 81.693,23.009 82.184,23.397 82.778,23.676 C 83.373,23.955 84.079,24.091 84.896,24.085 C 85.712,24.078 86.413,23.931 86.998,23.642 C 87.583,23.354 88.066,22.96 88.445,22.459 C 88.824,21.957 89.104,21.366 89.282,20.682 C 89.462,19.998 89.548,19.258 89.541,18.461 C 89.535,17.665 89.437,16.931 89.248,16.261 C 89.058,15.59 88.77,15.01 88.382,14.52 C 87.995,14.03 87.507,13.65 86.917,13.381 C 86.327,13.112 85.624,12.98 84.808,12.987 C 83.991,12.993 83.287,13.135 82.697,13.414 C 82.107,13.693 81.622,14.081 81.243,14.576 C 80.863,15.072 80.584,15.657 80.405,16.33 C 80.226,17.004 80.14,17.739 80.146,18.536 Z M 86.763,18.484 C 86.78,20.654 86.157,21.745 84.892,21.755 C 83.597,21.765 82.942,20.685 82.923,18.514 C 82.916,17.429 83.066,16.618 83.376,16.083 C 83.685,15.548 84.168,15.277 84.826,15.272 C 86.1,15.262 86.746,16.333 86.763,18.484 Z" marker-start="none" marker-end="none"/>
      <path d="M 95.047,12.813 C 94.241,12.836 93.575,12.964 93.048,13.197 C 92.522,13.431 92.11,13.759 91.812,14.18 C 91.515,14.602 91.313,15.108 91.205,15.699 C 91.096,16.29 91.052,16.954 91.072,17.69 L 91.242,23.796 C 91.531,23.829 91.781,23.85 91.99,23.859 C 92.2,23.867 92.399,23.869 92.588,23.865 C 92.757,23.86 92.944,23.847 93.147,23.826 C 93.351,23.806 93.596,23.771 93.884,23.724 L 93.724,17.93 C 93.71,17.432 93.719,17.01 93.749,16.659 C 93.779,16.31 93.844,16.025 93.942,15.802 C 94.041,15.58 94.183,15.42 94.369,15.32 C 94.556,15.22 94.803,15.166 95.112,15.157 C 95.421,15.149 95.674,15.189 95.87,15.279 C 96.067,15.367 96.221,15.521 96.331,15.736 C 96.442,15.953 96.519,16.235 96.563,16.582 C 96.608,16.929 96.637,17.352 96.651,17.85 L 96.811,23.643 C 97.11,23.675 97.362,23.695 97.567,23.704 C 97.771,23.713 97.959,23.716 98.128,23.712 C 98.307,23.707 98.5,23.694 98.709,23.673 C 98.918,23.652 99.166,23.618 99.453,23.571 L 99.285,17.463 C 99.265,16.727 99.185,16.067 99.044,15.482 C 98.903,14.899 98.673,14.404 98.353,14 C 98.033,13.596 97.603,13.29 97.064,13.087 C 96.526,12.882 95.854,12.791 95.047,12.813 Z" marker-start="none" marker-end="none"/>
      <path d="M 103.294,21.079 L 100.802,21.211 C 100.736,21.644 100.712,22.04 100.731,22.398 C 100.749,22.726 100.814,23.106 100.927,23.539 L 108.549,23.132 C 108.577,22.911 108.596,22.705 108.605,22.515 C 108.615,22.325 108.616,22.146 108.607,21.976 C 108.589,21.648 108.529,21.257 108.425,20.804 L 105.934,20.938 L 105.488,12.585 C 104.956,12.523 104.516,12.501 104.168,12.52 C 103.8,12.54 103.359,12.609 102.848,12.725 L 103.294,21.079 Z" marker-start="none" marker-end="none"/>
      <path d="M 111.948,25.57 C 112.287,25.595 112.593,25.611 112.869,25.616 C 113.143,25.622 113.387,25.617 113.598,25.601 C 113.821,25.585 114.071,25.554 114.349,25.51 C 114.626,25.465 114.925,25.406 115.244,25.333 L 114.494,14.904 L 118.796,14.595 C 118.836,14.281 118.857,14.007 118.859,13.777 C 118.861,13.545 118.855,13.337 118.842,13.15 C 118.827,12.939 118.801,12.72 118.767,12.491 C 118.731,12.263 118.672,11.99 118.586,11.672 L 110.988,12.218 L 111.948,25.57 Z" marker-start="none" marker-end="none"/>
      <path d="M 119.091,18.34 C 119.188,19.33 119.392,20.239 119.704,21.065 C 120.017,21.891 120.442,22.591 120.978,23.164 C 121.516,23.737 122.17,24.163 122.943,24.444 C 123.714,24.725 124.608,24.817 125.624,24.717 C 126.639,24.618 127.495,24.356 128.192,23.932 C 128.888,23.507 129.445,22.962 129.861,22.296 C 130.277,21.63 130.558,20.861 130.705,19.99 C 130.852,19.119 130.876,18.189 130.779,17.197 C 130.683,16.207 130.478,15.304 130.167,14.49 C 129.856,13.676 129.433,12.986 128.896,12.419 C 128.359,11.853 127.708,11.435 126.944,11.166 C 126.18,10.897 125.29,10.812 124.274,10.911 C 123.258,11.01 122.398,11.266 121.694,11.679 C 120.991,12.092 120.43,12.627 120.013,13.287 C 119.597,13.948 119.314,14.706 119.167,15.565 C 119.02,16.423 118.994,17.348 119.091,18.34 Z M 127.323,17.535 C 127.587,20.236 126.932,21.663 125.359,21.816 C 123.748,21.974 122.811,20.703 122.547,18.002 C 122.415,16.651 122.512,15.626 122.837,14.925 C 123.163,14.224 123.734,13.834 124.552,13.754 C 126.138,13.599 127.061,14.86 127.323,17.535 Z" marker-start="none" marker-end="none"/>
      <path d="M 138.197,17.843 C 138.69,17.57 139.129,17.299 139.517,17.032 C 139.904,16.764 140.227,16.461 140.486,16.122 C 140.745,15.783 140.928,15.39 141.037,14.944 C 141.145,14.498 141.162,13.972 141.087,13.367 C 141.006,12.712 140.819,12.136 140.525,11.64 C 140.232,11.143 139.84,10.733 139.349,10.411 C 138.857,10.091 138.275,9.867 137.601,9.743 C 136.927,9.62 136.17,9.609 135.331,9.713 C 134.564,9.807 133.896,9.953 133.325,10.149 C 132.752,10.345 132.144,10.615 131.496,10.957 C 131.598,11.384 131.742,11.834 131.926,12.306 C 132.109,12.779 132.319,13.258 132.554,13.744 C 133.63,13.108 134.588,12.739 135.428,12.636 C 136.058,12.558 136.561,12.593 136.936,12.741 C 137.312,12.889 137.529,13.198 137.587,13.667 C 137.611,13.865 137.596,14.039 137.539,14.19 C 137.482,14.341 137.399,14.473 137.287,14.589 C 137.175,14.703 137.047,14.804 136.901,14.89 C 136.754,14.977 136.605,15.061 136.452,15.143 L 135.462,15.661 C 135.038,15.876 134.657,16.117 134.32,16.385 C 133.983,16.652 133.704,16.953 133.481,17.288 C 133.259,17.622 133.101,17.996 133.008,18.409 C 132.915,18.822 132.902,19.294 132.967,19.825 C 133.047,20.48 133.23,21.046 133.515,21.525 C 133.801,22.005 134.165,22.395 134.61,22.698 C 135.055,23 135.573,23.206 136.163,23.315 C 136.753,23.424 137.4,23.435 138.105,23.348 C 138.734,23.27 139.336,23.134 139.908,22.938 C 140.478,22.742 141.083,22.485 141.722,22.168 C 141.624,21.78 141.48,21.354 141.291,20.895 C 141.103,20.435 140.884,20.007 140.635,19.612 C 140.33,19.788 139.971,19.976 139.557,20.178 C 139.143,20.38 138.614,20.52 137.973,20.598 C 137.775,20.623 137.584,20.628 137.4,20.613 C 137.217,20.598 137.048,20.56 136.897,20.496 C 136.745,20.434 136.617,20.337 136.513,20.205 C 136.409,20.074 136.344,19.904 136.318,19.694 C 136.274,19.335 136.359,19.055 136.571,18.853 C 136.785,18.651 137.045,18.469 137.351,18.305 L 138.197,17.843 Z" marker-start="none" marker-end="none"/>
      <path d="M 150.446,14.959 C 150.384,14.527 150.26,14.055 150.073,13.54 L 146.506,14.051 L 146.131,11.426 L 150.77,10.763 C 150.807,10.23 150.796,9.754 150.735,9.335 C 150.671,8.878 150.546,8.4 150.361,7.898 L 142.45,9.03 L 144.35,22.319 L 152.15,21.203 C 152.161,20.925 152.161,20.667 152.152,20.429 C 152.144,20.192 152.124,19.968 152.095,19.759 C 152.036,19.352 151.917,18.873 151.738,18.319 L 147.209,18.967 L 146.919,16.934 L 150.486,16.424 C 150.519,15.866 150.506,15.378 150.446,14.959 Z" marker-start="none" marker-end="none"/>
      <path d="M 158.703,14.821 C 159.182,14.525 159.611,14.236 159.986,13.952 C 160.36,13.667 160.67,13.349 160.914,13 C 161.157,12.65 161.324,12.249 161.411,11.798 C 161.5,11.349 161.493,10.823 161.392,10.221 C 161.282,9.571 161.07,9.003 160.754,8.521 C 160.44,8.037 160.029,7.645 159.524,7.345 C 159.019,7.046 158.427,6.849 157.749,6.755 C 157.07,6.663 156.313,6.685 155.479,6.826 C 154.718,6.954 154.057,7.129 153.494,7.35 C 152.932,7.571 152.335,7.868 151.703,8.24 C 151.825,8.661 151.988,9.103 152.193,9.567 C 152.397,10.032 152.628,10.501 152.884,10.975 C 153.931,10.294 154.871,9.883 155.706,9.742 C 156.332,9.636 156.836,9.649 157.218,9.78 C 157.6,9.911 157.83,10.21 157.909,10.676 C 157.941,10.872 157.934,11.048 157.883,11.201 C 157.835,11.355 157.756,11.491 157.65,11.61 C 157.544,11.728 157.42,11.835 157.278,11.928 C 157.136,12.022 156.99,12.114 156.841,12.201 L 155.874,12.762 C 155.46,12.995 155.09,13.254 154.765,13.536 C 154.441,13.818 154.174,14.13 153.967,14.475 C 153.761,14.819 153.62,15.199 153.545,15.617 C 153.47,16.033 153.477,16.505 153.566,17.033 C 153.675,17.684 153.884,18.242 154.189,18.708 C 154.496,19.174 154.877,19.548 155.335,19.83 C 155.793,20.113 156.32,20.295 156.914,20.378 C 157.508,20.46 158.156,20.443 158.855,20.325 C 159.482,20.219 160.075,20.056 160.637,19.834 C 161.2,19.613 161.793,19.33 162.416,18.985 C 162.301,18.6 162.139,18.182 161.93,17.732 C 161.721,17.281 161.484,16.864 161.217,16.48 C 160.92,16.669 160.57,16.873 160.165,17.093 C 159.761,17.313 159.24,17.476 158.601,17.585 C 158.404,17.617 158.215,17.63 158.03,17.624 C 157.846,17.617 157.677,17.586 157.522,17.53 C 157.367,17.474 157.236,17.382 157.125,17.256 C 157.016,17.129 156.943,16.961 156.908,16.753 C 156.848,16.397 156.92,16.113 157.125,15.902 C 157.329,15.69 157.58,15.497 157.878,15.321 L 158.703,14.821 Z" marker-start="none" marker-end="none"/>
     </g>
    </g>
   </g>
  </g>
 </g>
</svg>
